<svg width="261" height="257" viewBox="0 0 261 257" fill="none" xmlns="http://www.w3.org/2000/svg">
<g filter="url(#filter0_d_60_109)">
<ellipse cx="215.061" cy="24.3085" rx="24.9455" ry="24.3085" fill="#47DF3A"/>
</g>
<g filter="url(#filter1_d_60_109)">
<ellipse cx="215.308" cy="78.2347" rx="38.1683" ry="20.0018" fill="#47DF3A"/>
<path d="M176.215 80.3296C177.386 75.9578 181.348 72.9178 185.874 72.9178H244.478C249.004 72.9178 252.966 75.9578 254.138 80.3296L255.67 86.0492C257.372 92.4004 252.586 98.6373 246.011 98.6373H184.341C177.766 98.6373 172.98 92.4004 174.682 86.0492L176.215 80.3296Z" fill="#47DF3A"/>
</g>
<g filter="url(#filter2_d_60_109)">
<ellipse cx="44.7526" cy="24.3085" rx="24.9455" ry="24.3085" fill="#47DF3A"/>
</g>
<g filter="url(#filter3_d_60_109)">
<ellipse cx="44.9995" cy="78.2347" rx="38.1683" ry="20.0018" fill="#47DF3A"/>
<path d="M5.90551 80.3296C7.07694 75.9578 11.0387 72.9178 15.5648 72.9178H74.1692C78.6953 72.9178 82.657 75.9578 83.8285 80.3296L85.361 86.0492C87.0628 92.4004 82.277 98.6373 75.7017 98.6373H14.0322C7.45698 98.6373 2.67118 92.4004 4.37297 86.0492L5.90551 80.3296Z" fill="#47DF3A"/>
</g>
<g filter="url(#filter4_d_60_109)">
<path d="M130.654 169.464C128.708 171.415 125.55 171.424 123.594 169.484L101.283 147.361C98.1127 144.217 100.339 138.811 104.804 138.811H149.179C153.63 138.811 155.862 144.19 152.719 147.341L130.654 169.464Z" fill="#F46F6F"/>
<ellipse cx="110.053" cy="125.037" rx="21.2137" ry="22.6213" fill="#F46F6F"/>
<ellipse cx="144.035" cy="125.137" rx="21.0127" ry="22.5208" fill="#F46F6F"/>
</g>
<path d="M130.506 146.742C128.56 148.693 125.402 148.702 123.445 146.762L122.447 145.772C119.277 142.629 121.503 137.222 125.968 137.222H127.952C132.404 137.222 134.636 142.601 131.492 145.753L130.506 146.742Z" fill="#F46F6F"/>
<ellipse cx="120.464" cy="131.964" rx="8.09869" ry="8.63605" fill="#F46F6F"/>
<ellipse cx="133.437" cy="132.002" rx="8.02193" ry="8.59767" fill="#F46F6F"/>
<g filter="url(#filter5_d_60_109)">
<ellipse cx="44.7526" cy="174.671" rx="24.9455" ry="24.3085" fill="#12961F"/>
</g>
<g filter="url(#filter6_d_60_109)">
<ellipse cx="44.9995" cy="228.597" rx="38.1683" ry="20.0018" fill="#12961F"/>
<path d="M5.90551 230.692C7.07694 226.321 11.0387 223.281 15.5648 223.281H74.1692C78.6953 223.281 82.657 226.321 83.8285 230.692L85.361 236.412C87.0628 242.763 82.277 249 75.7017 249H14.0322C7.45698 249 2.67118 242.763 4.37297 236.412L5.90551 230.692Z" fill="#12961F"/>
</g>
<g filter="url(#filter7_d_60_109)">
<ellipse cx="215.061" cy="173.137" rx="24.9455" ry="24.3085" fill="#12961F"/>
</g>
<g filter="url(#filter8_d_60_109)">
<ellipse cx="215.308" cy="227.063" rx="38.1683" ry="20.0018" fill="#12961F"/>
<path d="M176.215 229.158C177.386 224.786 181.348 221.746 185.874 221.746H244.478C249.004 221.746 252.966 224.786 254.138 229.158L255.67 234.878C257.372 241.229 252.586 247.466 246.011 247.466H184.341C177.766 247.466 172.98 241.229 174.682 234.878L176.215 229.158Z" fill="#12961F"/>
</g>
<defs>
<filter id="filter0_d_60_109" x="186.116" y="0" width="57.8911" height="56.617" filterUnits="userSpaceOnUse" color-interpolation-filters="sRGB">
<feFlood flood-opacity="0" result="BackgroundImageFix"/>
<feColorMatrix in="SourceAlpha" type="matrix" values="0 0 0 0 0 0 0 0 0 0 0 0 0 0 0 0 0 0 127 0" result="hardAlpha"/>
<feOffset dy="4"/>
<feGaussianBlur stdDeviation="2"/>
<feComposite in2="hardAlpha" operator="out"/>
<feColorMatrix type="matrix" values="0 0 0 0 0 0 0 0 0 0 0 0 0 0 0 0 0 0 0.25 0"/>
<feBlend mode="normal" in2="BackgroundImageFix" result="effect1_dropShadow_60_109"/>
<feBlend mode="normal" in="SourceGraphic" in2="effect1_dropShadow_60_109" result="shape"/>
</filter>
<filter id="filter1_d_60_109" x="170.336" y="58.2329" width="89.6807" height="48.4044" filterUnits="userSpaceOnUse" color-interpolation-filters="sRGB">
<feFlood flood-opacity="0" result="BackgroundImageFix"/>
<feColorMatrix in="SourceAlpha" type="matrix" values="0 0 0 0 0 0 0 0 0 0 0 0 0 0 0 0 0 0 127 0" result="hardAlpha"/>
<feOffset dy="4"/>
<feGaussianBlur stdDeviation="2"/>
<feComposite in2="hardAlpha" operator="out"/>
<feColorMatrix type="matrix" values="0 0 0 0 0 0 0 0 0 0 0 0 0 0 0 0 0 0 0.25 0"/>
<feBlend mode="normal" in2="BackgroundImageFix" result="effect1_dropShadow_60_109"/>
<feBlend mode="normal" in="SourceGraphic" in2="effect1_dropShadow_60_109" result="shape"/>
</filter>
<filter id="filter2_d_60_109" x="15.8071" y="0" width="57.8911" height="56.617" filterUnits="userSpaceOnUse" color-interpolation-filters="sRGB">
<feFlood flood-opacity="0" result="BackgroundImageFix"/>
<feColorMatrix in="SourceAlpha" type="matrix" values="0 0 0 0 0 0 0 0 0 0 0 0 0 0 0 0 0 0 127 0" result="hardAlpha"/>
<feOffset dy="4"/>
<feGaussianBlur stdDeviation="2"/>
<feComposite in2="hardAlpha" operator="out"/>
<feColorMatrix type="matrix" values="0 0 0 0 0 0 0 0 0 0 0 0 0 0 0 0 0 0 0.25 0"/>
<feBlend mode="normal" in2="BackgroundImageFix" result="effect1_dropShadow_60_109"/>
<feBlend mode="normal" in="SourceGraphic" in2="effect1_dropShadow_60_109" result="shape"/>
</filter>
<filter id="filter3_d_60_109" x="0.0266113" y="58.2329" width="89.6807" height="48.4044" filterUnits="userSpaceOnUse" color-interpolation-filters="sRGB">
<feFlood flood-opacity="0" result="BackgroundImageFix"/>
<feColorMatrix in="SourceAlpha" type="matrix" values="0 0 0 0 0 0 0 0 0 0 0 0 0 0 0 0 0 0 127 0" result="hardAlpha"/>
<feOffset dy="4"/>
<feGaussianBlur stdDeviation="2"/>
<feComposite in2="hardAlpha" operator="out"/>
<feColorMatrix type="matrix" values="0 0 0 0 0 0 0 0 0 0 0 0 0 0 0 0 0 0 0.25 0"/>
<feBlend mode="normal" in2="BackgroundImageFix" result="effect1_dropShadow_60_109"/>
<feBlend mode="normal" in="SourceGraphic" in2="effect1_dropShadow_60_109" result="shape"/>
</filter>
<filter id="filter4_d_60_109" x="84.8396" y="102.415" width="84.2085" height="76.5177" filterUnits="userSpaceOnUse" color-interpolation-filters="sRGB">
<feFlood flood-opacity="0" result="BackgroundImageFix"/>
<feColorMatrix in="SourceAlpha" type="matrix" values="0 0 0 0 0 0 0 0 0 0 0 0 0 0 0 0 0 0 127 0" result="hardAlpha"/>
<feOffset dy="4"/>
<feGaussianBlur stdDeviation="2"/>
<feComposite in2="hardAlpha" operator="out"/>
<feColorMatrix type="matrix" values="0 0 0 0 0 0 0 0 0 0 0 0 0 0 0 0 0 0 0.25 0"/>
<feBlend mode="normal" in2="BackgroundImageFix" result="effect1_dropShadow_60_109"/>
<feBlend mode="normal" in="SourceGraphic" in2="effect1_dropShadow_60_109" result="shape"/>
</filter>
<filter id="filter5_d_60_109" x="15.8071" y="150.363" width="57.8911" height="56.617" filterUnits="userSpaceOnUse" color-interpolation-filters="sRGB">
<feFlood flood-opacity="0" result="BackgroundImageFix"/>
<feColorMatrix in="SourceAlpha" type="matrix" values="0 0 0 0 0 0 0 0 0 0 0 0 0 0 0 0 0 0 127 0" result="hardAlpha"/>
<feOffset dy="4"/>
<feGaussianBlur stdDeviation="2"/>
<feComposite in2="hardAlpha" operator="out"/>
<feColorMatrix type="matrix" values="0 0 0 0 0 0 0 0 0 0 0 0 0 0 0 0 0 0 0.25 0"/>
<feBlend mode="normal" in2="BackgroundImageFix" result="effect1_dropShadow_60_109"/>
<feBlend mode="normal" in="SourceGraphic" in2="effect1_dropShadow_60_109" result="shape"/>
</filter>
<filter id="filter6_d_60_109" x="0.0266113" y="208.596" width="89.6807" height="48.4044" filterUnits="userSpaceOnUse" color-interpolation-filters="sRGB">
<feFlood flood-opacity="0" result="BackgroundImageFix"/>
<feColorMatrix in="SourceAlpha" type="matrix" values="0 0 0 0 0 0 0 0 0 0 0 0 0 0 0 0 0 0 127 0" result="hardAlpha"/>
<feOffset dy="4"/>
<feGaussianBlur stdDeviation="2"/>
<feComposite in2="hardAlpha" operator="out"/>
<feColorMatrix type="matrix" values="0 0 0 0 0 0 0 0 0 0 0 0 0 0 0 0 0 0 0.25 0"/>
<feBlend mode="normal" in2="BackgroundImageFix" result="effect1_dropShadow_60_109"/>
<feBlend mode="normal" in="SourceGraphic" in2="effect1_dropShadow_60_109" result="shape"/>
</filter>
<filter id="filter7_d_60_109" x="186.116" y="148.828" width="57.8911" height="56.617" filterUnits="userSpaceOnUse" color-interpolation-filters="sRGB">
<feFlood flood-opacity="0" result="BackgroundImageFix"/>
<feColorMatrix in="SourceAlpha" type="matrix" values="0 0 0 0 0 0 0 0 0 0 0 0 0 0 0 0 0 0 127 0" result="hardAlpha"/>
<feOffset dy="4"/>
<feGaussianBlur stdDeviation="2"/>
<feComposite in2="hardAlpha" operator="out"/>
<feColorMatrix type="matrix" values="0 0 0 0 0 0 0 0 0 0 0 0 0 0 0 0 0 0 0.25 0"/>
<feBlend mode="normal" in2="BackgroundImageFix" result="effect1_dropShadow_60_109"/>
<feBlend mode="normal" in="SourceGraphic" in2="effect1_dropShadow_60_109" result="shape"/>
</filter>
<filter id="filter8_d_60_109" x="170.336" y="207.061" width="89.6807" height="48.4044" filterUnits="userSpaceOnUse" color-interpolation-filters="sRGB">
<feFlood flood-opacity="0" result="BackgroundImageFix"/>
<feColorMatrix in="SourceAlpha" type="matrix" values="0 0 0 0 0 0 0 0 0 0 0 0 0 0 0 0 0 0 127 0" result="hardAlpha"/>
<feOffset dy="4"/>
<feGaussianBlur stdDeviation="2"/>
<feComposite in2="hardAlpha" operator="out"/>
<feColorMatrix type="matrix" values="0 0 0 0 0 0 0 0 0 0 0 0 0 0 0 0 0 0 0.25 0"/>
<feBlend mode="normal" in2="BackgroundImageFix" result="effect1_dropShadow_60_109"/>
<feBlend mode="normal" in="SourceGraphic" in2="effect1_dropShadow_60_109" result="shape"/>
</filter>
</defs>
</svg>
