<svg width="436" height="436" viewBox="0 0 436 436" fill="none" xmlns="http://www.w3.org/2000/svg">
<rect width="436" height="436" fill="#F8F9FA"/>
<g filter="url(#filter0_d_50_27)">
<path d="M284.198 81.9444C301.906 115.923 295.767 307.885 172.698 275.068C160.1 216.913 117.512 155.965 284.198 81.9444Z" fill="#B4D184"/>
<path d="M281.189 101.888C256.231 139.538 227.931 189.725 227.931 189.725C227.931 189.725 199.317 248.837 172.661 276.154L163.606 269.814C214.515 211.707 235.813 170.542 281.189 101.888Z" fill="#826F6F"/>
</g>
<path d="M370 183C370 258.882 307.656 321 230 321C152.344 321 90 258.882 90 183C90 107.118 152.344 45 230 45C307.656 45 370 107.118 370 183Z" stroke="#F8F9FA" stroke-width="60"/>
<g filter="url(#filter1_d_50_27)">
<path d="M158.623 269.028C161.616 264.839 167.3 263.607 171.759 266.181L176.891 269.144C181.35 271.719 183.125 277.258 180.994 281.944L140.962 369.971C138.518 375.346 131.973 377.443 126.86 374.491L105.542 362.183C100.428 359.231 98.9727 352.514 102.405 347.71L158.623 269.028Z" fill="#6D594E"/>
</g>
<g filter="url(#filter2_d_50_27)">
<path d="M333 183C333 239.885 286.885 286 230 286C173.115 286 127 239.885 127 183C127 126.115 173.115 80 230 80C286.885 80 333 126.115 333 183Z" stroke="#717171" stroke-width="24" shape-rendering="crispEdges"/>
</g>
<path d="M304.206 114.402C319.196 100.011 344.237 158.337 334.608 176.439C330.685 152.226 315.221 124.409 304.206 114.402Z" fill="#F7F5F5"/>
<defs>
<filter id="filter0_d_50_27" x="154.465" y="81.9443" width="141.088" height="204.882" filterUnits="userSpaceOnUse" color-interpolation-filters="sRGB">
<feFlood flood-opacity="0" result="BackgroundImageFix"/>
<feColorMatrix in="SourceAlpha" type="matrix" values="0 0 0 0 0 0 0 0 0 0 0 0 0 0 0 0 0 0 127 0" result="hardAlpha"/>
<feOffset dy="4"/>
<feGaussianBlur stdDeviation="2"/>
<feComposite in2="hardAlpha" operator="out"/>
<feColorMatrix type="matrix" values="0 0 0 0 0 0 0 0 0 0 0 0 0 0 0 0 0 0 0.25 0"/>
<feBlend mode="normal" in2="BackgroundImageFix" result="effect1_dropShadow_50_27"/>
<feBlend mode="normal" in="SourceGraphic" in2="effect1_dropShadow_50_27" result="shape"/>
</filter>
<filter id="filter1_d_50_27" x="96.5405" y="264.841" width="89.3521" height="118.993" filterUnits="userSpaceOnUse" color-interpolation-filters="sRGB">
<feFlood flood-opacity="0" result="BackgroundImageFix"/>
<feColorMatrix in="SourceAlpha" type="matrix" values="0 0 0 0 0 0 0 0 0 0 0 0 0 0 0 0 0 0 127 0" result="hardAlpha"/>
<feOffset dy="4"/>
<feGaussianBlur stdDeviation="2"/>
<feComposite in2="hardAlpha" operator="out"/>
<feColorMatrix type="matrix" values="0 0 0 0 0 0 0 0 0 0 0 0 0 0 0 0 0 0 0.25 0"/>
<feBlend mode="normal" in2="BackgroundImageFix" result="effect1_dropShadow_50_27"/>
<feBlend mode="normal" in="SourceGraphic" in2="effect1_dropShadow_50_27" result="shape"/>
</filter>
<filter id="filter2_d_50_27" x="111" y="68" width="238" height="238" filterUnits="userSpaceOnUse" color-interpolation-filters="sRGB">
<feFlood flood-opacity="0" result="BackgroundImageFix"/>
<feColorMatrix in="SourceAlpha" type="matrix" values="0 0 0 0 0 0 0 0 0 0 0 0 0 0 0 0 0 0 127 0" result="hardAlpha"/>
<feOffset dy="4"/>
<feGaussianBlur stdDeviation="2"/>
<feComposite in2="hardAlpha" operator="out"/>
<feColorMatrix type="matrix" values="0 0 0 0 0 0 0 0 0 0 0 0 0 0 0 0 0 0 0.25 0"/>
<feBlend mode="normal" in2="BackgroundImageFix" result="effect1_dropShadow_50_27"/>
<feBlend mode="normal" in="SourceGraphic" in2="effect1_dropShadow_50_27" result="shape"/>
</filter>
</defs>
</svg>
