<svg width="340" height="369" viewBox="0 0 340 369" fill="none" xmlns="http://www.w3.org/2000/svg">
<g filter="url(#filter0_d_47_13)">
<path d="M224.198 66.9444C241.906 100.923 235.767 292.885 112.698 260.068C100.1 201.913 57.5123 140.965 224.198 66.9444Z" fill="#B4D184"/>
<path d="M221.189 86.8876C196.231 124.538 167.931 174.725 167.931 174.725C167.931 174.725 139.317 233.837 112.661 261.154L103.606 254.814C154.515 196.707 175.813 155.542 221.189 86.8876Z" fill="#826F6F"/>
</g>
<path d="M310 168C310 243.882 247.656 306 170 306C92.3444 306 30 243.882 30 168C30 92.1184 92.3444 30 170 30C247.656 30 310 92.1184 310 168Z" stroke="#F8F9FA" stroke-width="60"/>
<g filter="url(#filter1_d_47_13)">
<path d="M98.6226 254.028C101.616 249.839 107.3 248.607 111.759 251.181L116.891 254.144C121.35 256.719 123.125 262.258 120.994 266.944L80.9625 354.971C78.5181 360.346 71.9732 362.443 66.8596 359.491L45.5419 347.183C40.4283 344.231 38.9727 337.514 42.4054 332.71L98.6226 254.028Z" fill="#6D594E"/>
</g>
<g filter="url(#filter2_d_47_13)">
<path d="M273 168C273 224.885 226.885 271 170 271C113.115 271 67 224.885 67 168C67 111.115 113.115 65 170 65C226.885 65 273 111.115 273 168Z" stroke="#717171" stroke-width="24" shape-rendering="crispEdges"/>
</g>
<path d="M244.206 99.4017C259.196 85.0105 284.237 143.337 274.608 161.439C270.685 137.226 255.221 109.409 244.206 99.4017Z" fill="#F7F5F5"/>
<defs>
<filter id="filter0_d_47_13" x="94.4648" y="66.9443" width="141.088" height="204.882" filterUnits="userSpaceOnUse" color-interpolation-filters="sRGB">
<feFlood flood-opacity="0" result="BackgroundImageFix"/>
<feColorMatrix in="SourceAlpha" type="matrix" values="0 0 0 0 0 0 0 0 0 0 0 0 0 0 0 0 0 0 127 0" result="hardAlpha"/>
<feOffset dy="4"/>
<feGaussianBlur stdDeviation="2"/>
<feComposite in2="hardAlpha" operator="out"/>
<feColorMatrix type="matrix" values="0 0 0 0 0 0 0 0 0 0 0 0 0 0 0 0 0 0 0.25 0"/>
<feBlend mode="normal" in2="BackgroundImageFix" result="effect1_dropShadow_47_13"/>
<feBlend mode="normal" in="SourceGraphic" in2="effect1_dropShadow_47_13" result="shape"/>
</filter>
<filter id="filter1_d_47_13" x="36.5405" y="249.841" width="89.3521" height="118.993" filterUnits="userSpaceOnUse" color-interpolation-filters="sRGB">
<feFlood flood-opacity="0" result="BackgroundImageFix"/>
<feColorMatrix in="SourceAlpha" type="matrix" values="0 0 0 0 0 0 0 0 0 0 0 0 0 0 0 0 0 0 127 0" result="hardAlpha"/>
<feOffset dy="4"/>
<feGaussianBlur stdDeviation="2"/>
<feComposite in2="hardAlpha" operator="out"/>
<feColorMatrix type="matrix" values="0 0 0 0 0 0 0 0 0 0 0 0 0 0 0 0 0 0 0.25 0"/>
<feBlend mode="normal" in2="BackgroundImageFix" result="effect1_dropShadow_47_13"/>
<feBlend mode="normal" in="SourceGraphic" in2="effect1_dropShadow_47_13" result="shape"/>
</filter>
<filter id="filter2_d_47_13" x="51" y="53" width="238" height="238" filterUnits="userSpaceOnUse" color-interpolation-filters="sRGB">
<feFlood flood-opacity="0" result="BackgroundImageFix"/>
<feColorMatrix in="SourceAlpha" type="matrix" values="0 0 0 0 0 0 0 0 0 0 0 0 0 0 0 0 0 0 127 0" result="hardAlpha"/>
<feOffset dy="4"/>
<feGaussianBlur stdDeviation="2"/>
<feComposite in2="hardAlpha" operator="out"/>
<feColorMatrix type="matrix" values="0 0 0 0 0 0 0 0 0 0 0 0 0 0 0 0 0 0 0.25 0"/>
<feBlend mode="normal" in2="BackgroundImageFix" result="effect1_dropShadow_47_13"/>
<feBlend mode="normal" in="SourceGraphic" in2="effect1_dropShadow_47_13" result="shape"/>
</filter>
</defs>
</svg>
