<svg width="372" height="214" viewBox="0 0 372 214" fill="none" xmlns="http://www.w3.org/2000/svg">
<g filter="url(#filter0_d_48_10)">
<circle cx="292.507" cy="62.8811" r="43.8811" fill="#1A936F"/>
<path d="M236.628 135.529C240.011 126.583 248.577 120.665 258.141 120.665H325.604C335.121 120.665 343.655 126.526 347.071 135.408L359.123 166.743C364.918 181.808 353.798 198 337.657 198H246.289C230.203 198 219.086 181.91 224.776 166.863L236.628 135.529Z" fill="#1A936F"/>
</g>
<g filter="url(#filter1_d_48_10)">
<circle cx="79.5073" cy="62.8811" r="43.8811" fill="#88D498"/>
<path d="M23.6279 135.529C27.0111 126.583 35.5769 120.665 45.1406 120.665H112.604C122.121 120.665 130.655 126.526 134.071 135.408L146.123 166.743C151.918 181.808 140.798 198 124.657 198H33.2891C17.2029 198 6.0857 181.91 11.7764 166.863L23.6279 135.529Z" fill="#88D498"/>
</g>
<g filter="url(#filter2_d_48_10)">
<circle cx="182.5" cy="50.5" r="50.5" fill="#114B5F"/>
<path d="M117.329 136.387C121.742 124.719 132.915 117 145.389 117H218.164C230.577 117 241.708 124.645 246.165 136.23L257.319 165.23C264.877 184.88 250.372 206 229.319 206H134.421C113.438 206 98.9379 185.012 106.361 165.387L117.329 136.387Z" fill="#114B5F"/>
</g>
<defs>
<filter id="filter0_d_48_10" x="219.268" y="19" width="145.41" height="187" filterUnits="userSpaceOnUse" color-interpolation-filters="sRGB">
<feFlood flood-opacity="0" result="BackgroundImageFix"/>
<feColorMatrix in="SourceAlpha" type="matrix" values="0 0 0 0 0 0 0 0 0 0 0 0 0 0 0 0 0 0 127 0" result="hardAlpha"/>
<feOffset dy="4"/>
<feGaussianBlur stdDeviation="2"/>
<feComposite in2="hardAlpha" operator="out"/>
<feColorMatrix type="matrix" values="0 0 0 0 0 0 0 0 0 0 0 0 0 0 0 0 0 0 0.25 0"/>
<feBlend mode="normal" in2="BackgroundImageFix" result="effect1_dropShadow_48_10"/>
<feBlend mode="normal" in="SourceGraphic" in2="effect1_dropShadow_48_10" result="shape"/>
</filter>
<filter id="filter1_d_48_10" x="6.26807" y="19" width="145.41" height="187" filterUnits="userSpaceOnUse" color-interpolation-filters="sRGB">
<feFlood flood-opacity="0" result="BackgroundImageFix"/>
<feColorMatrix in="SourceAlpha" type="matrix" values="0 0 0 0 0 0 0 0 0 0 0 0 0 0 0 0 0 0 127 0" result="hardAlpha"/>
<feOffset dy="4"/>
<feGaussianBlur stdDeviation="2"/>
<feComposite in2="hardAlpha" operator="out"/>
<feColorMatrix type="matrix" values="0 0 0 0 0 0 0 0 0 0 0 0 0 0 0 0 0 0 0.25 0"/>
<feBlend mode="normal" in2="BackgroundImageFix" result="effect1_dropShadow_48_10"/>
<feBlend mode="normal" in="SourceGraphic" in2="effect1_dropShadow_48_10" result="shape"/>
</filter>
<filter id="filter2_d_48_10" x="100.393" y="0" width="162.954" height="214" filterUnits="userSpaceOnUse" color-interpolation-filters="sRGB">
<feFlood flood-opacity="0" result="BackgroundImageFix"/>
<feColorMatrix in="SourceAlpha" type="matrix" values="0 0 0 0 0 0 0 0 0 0 0 0 0 0 0 0 0 0 127 0" result="hardAlpha"/>
<feOffset dy="4"/>
<feGaussianBlur stdDeviation="2"/>
<feComposite in2="hardAlpha" operator="out"/>
<feColorMatrix type="matrix" values="0 0 0 0 0 0 0 0 0 0 0 0 0 0 0 0 0 0 0.25 0"/>
<feBlend mode="normal" in2="BackgroundImageFix" result="effect1_dropShadow_48_10"/>
<feBlend mode="normal" in="SourceGraphic" in2="effect1_dropShadow_48_10" result="shape"/>
</filter>
</defs>
</svg>
