<svg width="438" height="436" viewBox="0 0 438 436" fill="none" xmlns="http://www.w3.org/2000/svg">
<rect x="2" width="436" height="436" fill="#F8F9FA"/>
<g filter="url(#filter0_di_50_26)">
<path d="M196.876 248.49V245.472C196.936 235.114 197.853 226.858 199.628 220.702C201.463 214.547 204.127 209.576 207.619 205.788C211.11 202 215.313 198.567 220.225 195.489C223.895 193.122 227.179 190.666 230.079 188.121C232.98 185.576 235.288 182.764 237.004 179.687C238.721 176.55 239.579 173.058 239.579 169.211C239.579 165.127 238.602 161.546 236.649 158.469C234.696 155.391 232.062 153.024 228.748 151.366C225.493 149.709 221.882 148.881 217.917 148.881C214.07 148.881 210.43 149.739 206.997 151.455C203.564 153.112 200.753 155.598 198.563 158.913C196.373 162.168 195.19 166.222 195.012 171.075H158.79C159.086 159.238 161.927 149.473 167.313 141.778C172.699 134.025 179.831 128.254 188.709 124.467C197.587 120.62 207.382 118.696 218.094 118.696C229.872 118.696 240.289 120.649 249.344 124.555C258.4 128.402 265.502 133.995 270.651 141.335C275.8 148.674 278.375 157.522 278.375 167.879C278.375 174.804 277.221 180.959 274.913 186.345C272.664 191.672 269.497 196.407 265.413 200.55C261.329 204.634 256.506 208.333 250.942 211.647C246.267 214.429 242.42 217.329 239.401 220.347C236.442 223.366 234.222 226.858 232.743 230.823C231.322 234.789 230.583 239.671 230.523 245.472V248.49H196.876ZM214.454 305.308C208.536 305.308 203.476 303.237 199.273 299.094C195.13 294.892 193.088 289.861 193.148 284.001C193.088 278.201 195.13 273.23 199.273 269.087C203.476 264.944 208.536 262.872 214.454 262.872C220.077 262.872 225.019 264.944 229.28 269.087C233.542 273.23 235.702 278.201 235.761 284.001C235.702 287.908 234.666 291.488 232.654 294.744C230.701 297.94 228.126 300.514 224.93 302.467C221.734 304.361 218.242 305.308 214.454 305.308Z" fill="#1A936F"/>
</g>
<g filter="url(#filter1_di_50_26)">
<path d="M121.476 266.278L120.57 264.709C117.494 259.31 115.493 254.744 114.569 251.014C113.676 247.265 113.568 243.883 114.246 240.867C114.924 237.851 116.078 234.807 117.707 231.734C118.903 229.404 119.873 227.142 120.617 224.95C121.36 222.757 121.716 220.604 121.685 218.49C121.635 216.345 121.034 214.273 119.88 212.275C118.654 210.153 117.073 208.585 115.134 207.572C113.196 206.558 111.117 206.118 108.898 206.252C106.709 206.367 104.584 207.019 102.524 208.209C100.525 209.363 98.8907 210.901 97.6219 212.822C96.3353 214.713 95.6203 216.848 95.4768 219.227C95.3155 221.575 95.9168 224.037 97.2806 226.612L78.4588 237.478C75.0611 231.238 73.6074 225.312 74.0976 219.698C74.5701 214.054 76.5447 208.916 80.0214 204.285C83.4804 199.623 87.9932 195.685 93.5598 192.472C99.6799 188.939 105.679 186.829 111.556 186.142C117.416 185.425 122.784 186.2 127.662 188.469C132.54 190.738 136.532 194.563 139.64 199.945C141.717 203.543 142.964 207.087 143.381 210.578C143.81 214.021 143.585 217.431 142.706 220.809C141.81 224.155 140.413 227.524 138.516 230.916C136.921 233.763 135.792 236.424 135.13 238.898C134.497 241.354 134.392 243.835 134.813 246.339C135.264 248.825 136.345 251.584 138.054 254.616L138.96 256.184L121.476 266.278ZM147.657 290.527C144.582 292.303 141.331 292.744 137.904 291.852C134.49 290.911 131.92 288.91 130.193 285.848C128.422 282.852 127.991 279.656 128.901 276.26C129.842 272.847 131.85 270.253 134.925 268.478C137.847 266.791 141.036 266.385 144.494 267.259C147.951 268.134 150.565 270.069 152.336 273.065C153.477 275.112 154.013 277.283 153.944 279.579C153.888 281.825 153.323 283.935 152.248 285.909C151.156 287.851 149.625 289.391 147.657 290.527Z" fill="#88D498"/>
</g>
<g filter="url(#filter2_di_50_26)">
<path d="M290.905 252.642L291.81 251.074C294.949 245.71 297.902 241.695 300.672 239.029C303.472 236.382 306.348 234.597 309.298 233.677C312.249 232.756 315.463 232.233 318.939 232.107C321.556 231.978 324 231.687 326.27 231.234C328.541 230.782 330.584 230.014 332.399 228.929C334.232 227.814 335.726 226.257 336.88 224.259C338.105 222.137 338.672 219.983 338.581 217.798C338.489 215.613 337.831 213.593 336.606 211.738C335.411 209.9 333.784 208.386 331.723 207.197C329.724 206.043 327.575 205.397 325.277 205.259C322.996 205.09 320.789 205.539 318.657 206.604C316.542 207.638 314.711 209.39 313.162 211.858L294.341 200.993C298.046 194.931 302.452 190.709 307.559 188.327C312.684 185.914 318.121 185.055 323.871 185.75C329.638 186.414 335.305 188.353 340.872 191.566C346.992 195.099 351.819 199.239 355.352 203.985C358.904 208.7 360.916 213.737 361.39 219.095C361.864 224.453 360.547 229.823 357.439 235.204C355.362 238.802 352.915 241.655 350.1 243.761C347.333 245.854 344.267 247.364 340.902 248.292C337.555 249.189 333.938 249.664 330.053 249.717C326.789 249.76 323.92 250.113 321.445 250.776C319.002 251.456 316.801 252.605 314.843 254.222C312.915 255.856 311.065 258.171 309.294 261.167L308.389 262.736L290.905 252.642ZM282.992 287.438C279.916 285.663 277.908 283.068 276.968 279.655C276.076 276.229 276.524 273.002 278.313 269.976C280.022 266.944 282.575 264.973 285.971 264.063C289.397 263.171 292.648 263.613 295.724 265.388C298.645 267.075 300.592 269.634 301.563 273.065C302.535 276.496 302.166 279.727 300.456 282.758C299.253 284.77 297.641 286.32 295.619 287.408C293.645 288.483 291.534 289.048 289.288 289.104C287.059 289.13 284.96 288.574 282.992 287.438Z" fill="#88D498"/>
</g>
<defs>
<filter id="filter0_di_50_26" x="154.791" y="118.696" width="127.584" height="194.612" filterUnits="userSpaceOnUse" color-interpolation-filters="sRGB">
<feFlood flood-opacity="0" result="BackgroundImageFix"/>
<feColorMatrix in="SourceAlpha" type="matrix" values="0 0 0 0 0 0 0 0 0 0 0 0 0 0 0 0 0 0 127 0" result="hardAlpha"/>
<feOffset dy="4"/>
<feGaussianBlur stdDeviation="2"/>
<feComposite in2="hardAlpha" operator="out"/>
<feColorMatrix type="matrix" values="0 0 0 0 0 0 0 0 0 0 0 0 0 0 0 0 0 0 0.25 0"/>
<feBlend mode="normal" in2="BackgroundImageFix" result="effect1_dropShadow_50_26"/>
<feBlend mode="normal" in="SourceGraphic" in2="effect1_dropShadow_50_26" result="shape"/>
<feColorMatrix in="SourceAlpha" type="matrix" values="0 0 0 0 0 0 0 0 0 0 0 0 0 0 0 0 0 0 127 0" result="hardAlpha"/>
<feOffset dy="4"/>
<feGaussianBlur stdDeviation="2"/>
<feComposite in2="hardAlpha" operator="arithmetic" k2="-1" k3="1"/>
<feColorMatrix type="matrix" values="0 0 0 0 0 0 0 0 0 0 0 0 0 0 0 0 0 0 0.25 0"/>
<feBlend mode="normal" in2="shape" result="effect2_innerShadow_50_26"/>
</filter>
<filter id="filter1_di_50_26" x="58.7437" y="174.389" width="126.128" height="140.836" filterUnits="userSpaceOnUse" color-interpolation-filters="sRGB">
<feFlood flood-opacity="0" result="BackgroundImageFix"/>
<feColorMatrix in="SourceAlpha" type="matrix" values="0 0 0 0 0 0 0 0 0 0 0 0 0 0 0 0 0 0 127 0" result="hardAlpha"/>
<feOffset dy="4"/>
<feGaussianBlur stdDeviation="2"/>
<feComposite in2="hardAlpha" operator="out"/>
<feColorMatrix type="matrix" values="0 0 0 0 0 0 0 0 0 0 0 0 0 0 0 0 0 0 0.25 0"/>
<feBlend mode="normal" in2="BackgroundImageFix" result="effect1_dropShadow_50_26"/>
<feBlend mode="normal" in="SourceGraphic" in2="effect1_dropShadow_50_26" result="shape"/>
<feColorMatrix in="SourceAlpha" type="matrix" values="0 0 0 0 0 0 0 0 0 0 0 0 0 0 0 0 0 0 127 0" result="hardAlpha"/>
<feOffset dy="4"/>
<feGaussianBlur stdDeviation="2"/>
<feComposite in2="hardAlpha" operator="arithmetic" k2="-1" k3="1"/>
<feColorMatrix type="matrix" values="0 0 0 0 0 0 0 0 0 0 0 0 0 0 0 0 0 0 0.25 0"/>
<feBlend mode="normal" in2="shape" result="effect2_innerShadow_50_26"/>
</filter>
<filter id="filter2_di_50_26" x="250.067" y="173.777" width="126.128" height="140.836" filterUnits="userSpaceOnUse" color-interpolation-filters="sRGB">
<feFlood flood-opacity="0" result="BackgroundImageFix"/>
<feColorMatrix in="SourceAlpha" type="matrix" values="0 0 0 0 0 0 0 0 0 0 0 0 0 0 0 0 0 0 127 0" result="hardAlpha"/>
<feOffset dy="4"/>
<feGaussianBlur stdDeviation="2"/>
<feComposite in2="hardAlpha" operator="out"/>
<feColorMatrix type="matrix" values="0 0 0 0 0 0 0 0 0 0 0 0 0 0 0 0 0 0 0.25 0"/>
<feBlend mode="normal" in2="BackgroundImageFix" result="effect1_dropShadow_50_26"/>
<feBlend mode="normal" in="SourceGraphic" in2="effect1_dropShadow_50_26" result="shape"/>
<feColorMatrix in="SourceAlpha" type="matrix" values="0 0 0 0 0 0 0 0 0 0 0 0 0 0 0 0 0 0 127 0" result="hardAlpha"/>
<feOffset dy="4"/>
<feGaussianBlur stdDeviation="2"/>
<feComposite in2="hardAlpha" operator="arithmetic" k2="-1" k3="1"/>
<feColorMatrix type="matrix" values="0 0 0 0 0 0 0 0 0 0 0 0 0 0 0 0 0 0 0.25 0"/>
<feBlend mode="normal" in2="shape" result="effect2_innerShadow_50_26"/>
</filter>
</defs>
</svg>
