<svg width="477" height="301" viewBox="0 0 477 301" fill="none" xmlns="http://www.w3.org/2000/svg">
<g filter="url(#filter0_di_43_7)">
<path d="M215.773 187.49V184.472C215.832 174.114 216.749 165.858 218.525 159.702C220.36 153.547 223.023 148.576 226.515 144.788C230.007 141 234.209 137.567 239.121 134.489C242.791 132.122 246.076 129.666 248.976 127.121C251.876 124.576 254.184 121.764 255.901 118.687C257.617 115.55 258.475 112.058 258.475 108.211C258.475 104.127 257.499 100.546 255.545 97.4688C253.592 94.3911 250.959 92.0237 247.644 90.3665C244.389 88.7093 240.779 87.8807 236.813 87.8807C232.966 87.8807 229.326 88.7389 225.893 90.4553C222.461 92.1124 219.649 94.5982 217.46 97.9126C215.27 101.168 214.086 105.222 213.908 110.075H177.687C177.983 98.2382 180.824 88.4725 186.21 80.7784C191.595 73.0251 198.727 67.2545 207.605 63.4666C216.483 59.6195 226.278 57.696 236.991 57.696C248.769 57.696 259.185 59.6491 268.241 63.5554C277.296 67.4025 284.398 72.9955 289.548 80.3345C294.697 87.6735 297.271 96.5218 297.271 106.879C297.271 113.804 296.117 119.959 293.809 125.345C291.56 130.672 288.393 135.407 284.31 139.55C280.226 143.634 275.402 147.333 269.839 150.647C265.163 153.429 261.316 156.329 258.298 159.347C255.338 162.366 253.119 165.858 251.639 169.823C250.219 173.789 249.479 178.671 249.42 184.472V187.49H215.773ZM233.351 244.308C227.432 244.308 222.372 242.237 218.17 238.094C214.027 233.892 211.985 228.861 212.044 223.001C211.985 217.201 214.027 212.23 218.17 208.087C222.372 203.944 227.432 201.872 233.351 201.872C238.973 201.872 243.915 203.944 248.177 208.087C252.438 212.23 254.598 217.201 254.658 223.001C254.598 226.908 253.563 230.488 251.55 233.744C249.597 236.94 247.023 239.514 243.827 241.467C240.631 243.361 237.139 244.308 233.351 244.308Z" fill="#1A936F"/>
</g>
<g filter="url(#filter1_di_43_7)">
<path d="M115.852 197.934L114.946 196.365C111.87 190.966 109.869 186.4 108.945 182.669C108.052 178.92 107.945 175.538 108.623 172.522C109.301 169.506 110.455 166.462 112.084 163.389C113.28 161.058 114.25 158.796 114.994 156.604C115.737 154.411 116.093 152.258 116.062 150.144C116.013 147.999 115.411 145.927 114.257 143.928C113.032 141.806 111.45 140.239 109.512 139.225C107.574 138.212 105.495 137.772 103.275 137.905C101.087 138.021 98.9623 138.673 96.9018 139.863C94.9028 141.017 93.2689 142.555 92.0001 144.477C90.7136 146.368 89.9985 148.503 89.8549 150.882C89.6936 153.23 90.2948 155.692 91.6585 158.267L72.8372 169.134C69.4398 162.894 67.9863 156.967 68.4767 151.354C68.9493 145.709 70.9239 140.571 74.4006 135.94C77.8596 131.277 82.3722 127.339 87.9387 124.125C94.0587 120.592 100.057 118.482 105.934 117.795C111.794 117.077 117.162 117.853 122.04 120.122C126.917 122.39 130.909 126.216 134.016 131.598C136.094 135.196 137.341 138.74 137.757 142.231C138.186 145.674 137.962 149.084 137.082 152.462C136.186 155.809 134.789 159.178 132.892 162.57C131.297 165.418 130.168 168.079 129.505 170.553C128.873 173.009 128.768 175.489 129.188 177.994C129.64 180.48 130.72 183.24 132.43 186.271L133.335 187.84L115.852 197.934ZM142.031 222.184C138.956 223.959 135.705 224.401 132.278 223.509C128.865 222.568 126.295 220.567 124.568 217.505C122.797 214.508 122.366 211.313 123.276 207.917C124.217 204.503 126.225 201.909 129.3 200.133C132.222 198.447 135.411 198.04 138.868 198.915C142.325 199.789 144.939 201.724 146.71 204.72C147.851 206.768 148.387 208.939 148.318 211.234C148.262 213.481 147.697 215.591 146.622 217.565C145.53 219.508 143.999 221.047 142.031 222.184Z" fill="#88D498"/>
</g>
<g filter="url(#filter2_di_43_7)">
<path d="M336.558 184.297L337.463 182.729C340.601 177.365 343.555 173.35 346.324 170.684C349.124 168.036 351.999 166.252 354.95 165.331C357.901 164.411 361.114 163.887 364.59 163.762C367.207 163.633 369.651 163.342 371.921 162.889C374.192 162.437 376.234 161.669 378.05 160.584C379.883 159.469 381.376 157.912 382.53 155.913C383.755 153.791 384.322 151.638 384.231 149.453C384.139 147.268 383.481 145.247 382.256 143.392C381.061 141.554 379.434 140.041 377.373 138.851C375.374 137.697 373.226 137.051 370.927 136.913C368.646 136.744 366.44 137.192 364.307 138.258C362.193 139.292 360.362 141.044 358.813 143.512L339.992 132.646C343.697 126.584 348.103 122.362 353.21 119.979C358.334 117.566 363.771 116.707 369.521 117.403C375.288 118.067 380.955 120.006 386.521 123.22C392.641 126.753 397.468 130.893 401.001 135.639C404.552 140.355 406.565 145.392 407.039 150.75C407.513 156.108 406.196 161.478 403.089 166.86C401.011 170.458 398.565 173.311 395.75 175.417C392.983 177.51 389.917 179.02 386.553 179.948C383.205 180.845 379.589 181.32 375.704 181.373C372.44 181.416 369.571 181.768 367.097 182.431C364.654 183.112 362.453 184.261 360.494 185.877C358.567 187.512 356.717 189.827 354.947 192.823L354.041 194.391L336.558 184.297ZM328.646 219.094C325.571 217.319 323.563 214.724 322.622 211.311C321.73 207.884 322.178 204.658 323.967 201.631C325.676 198.599 328.229 196.629 331.624 195.719C335.051 194.827 338.301 195.268 341.377 197.044C344.298 198.731 346.245 201.29 347.216 204.721C348.188 208.152 347.819 211.383 346.109 214.415C344.907 216.427 343.294 217.977 341.272 219.065C339.299 220.139 337.188 220.705 334.942 220.761C332.713 220.786 330.614 220.231 328.646 219.094Z" fill="#88D498"/>
</g>
<defs>
<filter id="filter0_di_43_7" x="173.687" y="57.696" width="127.584" height="194.612" filterUnits="userSpaceOnUse" color-interpolation-filters="sRGB">
<feFlood flood-opacity="0" result="BackgroundImageFix"/>
<feColorMatrix in="SourceAlpha" type="matrix" values="0 0 0 0 0 0 0 0 0 0 0 0 0 0 0 0 0 0 127 0" result="hardAlpha"/>
<feOffset dy="4"/>
<feGaussianBlur stdDeviation="2"/>
<feComposite in2="hardAlpha" operator="out"/>
<feColorMatrix type="matrix" values="0 0 0 0 0 0 0 0 0 0 0 0 0 0 0 0 0 0 0.25 0"/>
<feBlend mode="normal" in2="BackgroundImageFix" result="effect1_dropShadow_43_7"/>
<feBlend mode="normal" in="SourceGraphic" in2="effect1_dropShadow_43_7" result="shape"/>
<feColorMatrix in="SourceAlpha" type="matrix" values="0 0 0 0 0 0 0 0 0 0 0 0 0 0 0 0 0 0 127 0" result="hardAlpha"/>
<feOffset dy="4"/>
<feGaussianBlur stdDeviation="2"/>
<feComposite in2="hardAlpha" operator="arithmetic" k2="-1" k3="1"/>
<feColorMatrix type="matrix" values="0 0 0 0 0 0 0 0 0 0 0 0 0 0 0 0 0 0 0.25 0"/>
<feBlend mode="normal" in2="shape" result="effect2_innerShadow_43_7"/>
</filter>
<filter id="filter1_di_43_7" x="53.1235" y="106.041" width="126.122" height="140.842" filterUnits="userSpaceOnUse" color-interpolation-filters="sRGB">
<feFlood flood-opacity="0" result="BackgroundImageFix"/>
<feColorMatrix in="SourceAlpha" type="matrix" values="0 0 0 0 0 0 0 0 0 0 0 0 0 0 0 0 0 0 127 0" result="hardAlpha"/>
<feOffset dy="4"/>
<feGaussianBlur stdDeviation="2"/>
<feComposite in2="hardAlpha" operator="out"/>
<feColorMatrix type="matrix" values="0 0 0 0 0 0 0 0 0 0 0 0 0 0 0 0 0 0 0.25 0"/>
<feBlend mode="normal" in2="BackgroundImageFix" result="effect1_dropShadow_43_7"/>
<feBlend mode="normal" in="SourceGraphic" in2="effect1_dropShadow_43_7" result="shape"/>
<feColorMatrix in="SourceAlpha" type="matrix" values="0 0 0 0 0 0 0 0 0 0 0 0 0 0 0 0 0 0 127 0" result="hardAlpha"/>
<feOffset dy="4"/>
<feGaussianBlur stdDeviation="2"/>
<feComposite in2="hardAlpha" operator="arithmetic" k2="-1" k3="1"/>
<feColorMatrix type="matrix" values="0 0 0 0 0 0 0 0 0 0 0 0 0 0 0 0 0 0 0.25 0"/>
<feBlend mode="normal" in2="shape" result="effect2_innerShadow_43_7"/>
</filter>
<filter id="filter2_di_43_7" x="295.722" y="105.429" width="126.122" height="140.842" filterUnits="userSpaceOnUse" color-interpolation-filters="sRGB">
<feFlood flood-opacity="0" result="BackgroundImageFix"/>
<feColorMatrix in="SourceAlpha" type="matrix" values="0 0 0 0 0 0 0 0 0 0 0 0 0 0 0 0 0 0 127 0" result="hardAlpha"/>
<feOffset dy="4"/>
<feGaussianBlur stdDeviation="2"/>
<feComposite in2="hardAlpha" operator="out"/>
<feColorMatrix type="matrix" values="0 0 0 0 0 0 0 0 0 0 0 0 0 0 0 0 0 0 0.25 0"/>
<feBlend mode="normal" in2="BackgroundImageFix" result="effect1_dropShadow_43_7"/>
<feBlend mode="normal" in="SourceGraphic" in2="effect1_dropShadow_43_7" result="shape"/>
<feColorMatrix in="SourceAlpha" type="matrix" values="0 0 0 0 0 0 0 0 0 0 0 0 0 0 0 0 0 0 127 0" result="hardAlpha"/>
<feOffset dy="4"/>
<feGaussianBlur stdDeviation="2"/>
<feComposite in2="hardAlpha" operator="arithmetic" k2="-1" k3="1"/>
<feColorMatrix type="matrix" values="0 0 0 0 0 0 0 0 0 0 0 0 0 0 0 0 0 0 0.25 0"/>
<feBlend mode="normal" in2="shape" result="effect2_innerShadow_43_7"/>
</filter>
</defs>
</svg>
